<mxfile host="app.diagrams.net" agent="Mozilla/5.0 (Windows NT 10.0; Win64; x64) AppleWebKit/537.36 (KHTML, like Gecko) Chrome/130.0.0.0 Safari/537.36" version="24.8.4">
  <diagram name="Page-1" id="OMScAwG-kNJ3uhis41Wr">
    <mxGraphModel grid="1" page="1" gridSize="10" guides="1" tooltips="1" connect="1" arrows="1" fold="1" pageScale="1" pageWidth="827" pageHeight="1169" math="0" shadow="0">
      <root>
        <mxCell id="0" />
        <mxCell id="1" parent="0" />
        <mxCell id="cO0M3a5bvMooVGa-kS_4-1" value="Función&lt;br&gt;&lt;br&gt;Nombre: f&lt;br&gt;&lt;br&gt;Qué hace:&amp;nbsp;&lt;br&gt;Toma un valor &lt;b&gt;x&lt;/b&gt;&amp;nbsp;y hace el procesamiento&lt;br&gt;&lt;br&gt;&lt;div&gt;&lt;b&gt;X + 1&lt;/b&gt;&lt;/div&gt;" style="rounded=1;whiteSpace=wrap;html=1;fillColor=#fff2cc;strokeColor=#d6b656;" vertex="1" parent="1">
          <mxGeometry x="360" y="120" width="120" height="170" as="geometry" />
        </mxCell>
        <mxCell id="cO0M3a5bvMooVGa-kS_4-2" value="Algo que hace un procesamiento" style="text;html=1;align=center;verticalAlign=middle;whiteSpace=wrap;rounded=0;" vertex="1" parent="1">
          <mxGeometry x="340" y="70" width="180" height="30" as="geometry" />
        </mxCell>
        <mxCell id="cO0M3a5bvMooVGa-kS_4-3" value="&lt;b&gt;5&lt;/b&gt;" style="text;html=1;align=center;verticalAlign=middle;whiteSpace=wrap;rounded=0;" vertex="1" parent="1">
          <mxGeometry x="170" y="180" width="60" height="30" as="geometry" />
        </mxCell>
        <mxCell id="cO0M3a5bvMooVGa-kS_4-4" value="" style="shape=flexArrow;endArrow=classic;html=1;rounded=0;" edge="1" parent="1">
          <mxGeometry width="50" height="50" relative="1" as="geometry">
            <mxPoint x="240" y="200" as="sourcePoint" />
            <mxPoint x="340" y="200" as="targetPoint" />
          </mxGeometry>
        </mxCell>
        <mxCell id="cO0M3a5bvMooVGa-kS_4-5" value="&lt;b&gt;f(5)&lt;/b&gt;" style="text;html=1;align=center;verticalAlign=middle;whiteSpace=wrap;rounded=0;" vertex="1" parent="1">
          <mxGeometry x="300" y="160" width="60" height="30" as="geometry" />
        </mxCell>
        <mxCell id="cO0M3a5bvMooVGa-kS_4-6" value="" style="shape=flexArrow;endArrow=classic;html=1;rounded=0;" edge="1" parent="1">
          <mxGeometry width="50" height="50" relative="1" as="geometry">
            <mxPoint x="500" y="204.5" as="sourcePoint" />
            <mxPoint x="600" y="204.5" as="targetPoint" />
          </mxGeometry>
        </mxCell>
        <mxCell id="cO0M3a5bvMooVGa-kS_4-7" value="&lt;b&gt;5 + 1 = 6&lt;/b&gt;" style="text;html=1;align=center;verticalAlign=middle;whiteSpace=wrap;rounded=0;" vertex="1" parent="1">
          <mxGeometry x="620" y="190" width="60" height="30" as="geometry" />
        </mxCell>
        <mxCell id="cO0M3a5bvMooVGa-kS_4-8" value="Función" style="text;html=1;align=center;verticalAlign=middle;whiteSpace=wrap;rounded=0;" vertex="1" parent="1">
          <mxGeometry x="384" y="40" width="60" height="30" as="geometry" />
        </mxCell>
        <mxCell id="cO0M3a5bvMooVGa-kS_4-9" value="Procedimiento o Acción (Procedure)" style="text;html=1;align=center;verticalAlign=middle;whiteSpace=wrap;rounded=0;" vertex="1" parent="1">
          <mxGeometry x="354" y="380" width="166" height="30" as="geometry" />
        </mxCell>
        <mxCell id="cO0M3a5bvMooVGa-kS_4-10" value="Procedimiento&lt;div&gt;&lt;br&gt;&lt;/div&gt;&lt;div&gt;Nombre: g&lt;/div&gt;&lt;div&gt;&lt;br&gt;&lt;/div&gt;&lt;div&gt;Parámetros&lt;/div&gt;&lt;div&gt;&lt;br&gt;&lt;/div&gt;&lt;div&gt;Hace alguna acción&lt;br&gt;(ejemplo: Imprime en Pantalla)&lt;br&gt;&lt;br&gt;&amp;nbsp;dentro del programa, pero no devuelve ningún valor&lt;/div&gt;" style="rounded=1;whiteSpace=wrap;html=1;fillColor=#dae8fc;strokeColor=#6c8ebf;" vertex="1" parent="1">
          <mxGeometry x="370" y="420" width="130" height="190" as="geometry" />
        </mxCell>
        <mxCell id="cO0M3a5bvMooVGa-kS_4-11" value="" style="shape=flexArrow;endArrow=classic;html=1;rounded=0;" edge="1" parent="1">
          <mxGeometry width="50" height="50" relative="1" as="geometry">
            <mxPoint x="260" y="514.5" as="sourcePoint" />
            <mxPoint x="360" y="514.5" as="targetPoint" />
          </mxGeometry>
        </mxCell>
        <mxCell id="cO0M3a5bvMooVGa-kS_4-12" value="&lt;b&gt;5&lt;/b&gt;" style="text;html=1;align=center;verticalAlign=middle;whiteSpace=wrap;rounded=0;" vertex="1" parent="1">
          <mxGeometry x="190" y="500" width="60" height="30" as="geometry" />
        </mxCell>
        <mxCell id="cO0M3a5bvMooVGa-kS_4-13" value="&lt;b&gt;g(5)&lt;/b&gt;" style="text;html=1;align=center;verticalAlign=middle;whiteSpace=wrap;rounded=0;" vertex="1" parent="1">
          <mxGeometry x="280" y="470" width="60" height="30" as="geometry" />
        </mxCell>
        <mxCell id="cO0M3a5bvMooVGa-kS_4-14" value="&lt;font color=&quot;#ff3333&quot;&gt;No hay salida&lt;/font&gt;" style="text;html=1;align=center;verticalAlign=middle;whiteSpace=wrap;rounded=0;" vertex="1" parent="1">
          <mxGeometry x="530" y="460" width="130" height="30" as="geometry" />
        </mxCell>
        <mxCell id="cO0M3a5bvMooVGa-kS_4-18" value="" style="ellipse;shape=cloud;whiteSpace=wrap;html=1;fillColor=#fff2cc;strokeColor=#d6b656;" vertex="1" parent="1">
          <mxGeometry x="260" y="605" width="380" height="155" as="geometry" />
        </mxCell>
        <mxCell id="cO0M3a5bvMooVGa-kS_4-16" value="Ocurre algo en el sistema" style="text;html=1;align=center;verticalAlign=middle;whiteSpace=wrap;rounded=0;" vertex="1" parent="1">
          <mxGeometry x="444" y="630" width="216" height="30" as="geometry" />
        </mxCell>
        <mxCell id="cO0M3a5bvMooVGa-kS_4-17" value="Luego de g(5) en la pantalla se imprime un 5" style="text;html=1;align=center;verticalAlign=middle;whiteSpace=wrap;rounded=0;" vertex="1" parent="1">
          <mxGeometry x="310" y="700" width="250" height="30" as="geometry" />
        </mxCell>
        <mxCell id="cO0M3a5bvMooVGa-kS_4-19" value="" style="endArrow=classic;html=1;rounded=0;exitX=0.07;exitY=0.4;exitDx=0;exitDy=0;exitPerimeter=0;" edge="1" parent="1" source="cO0M3a5bvMooVGa-kS_4-18">
          <mxGeometry width="50" height="50" relative="1" as="geometry">
            <mxPoint x="190" y="670" as="sourcePoint" />
            <mxPoint x="160" y="610" as="targetPoint" />
          </mxGeometry>
        </mxCell>
        <mxCell id="cO0M3a5bvMooVGa-kS_4-20" value="Efecto Lateral o Side Effect" style="text;html=1;align=center;verticalAlign=middle;whiteSpace=wrap;rounded=0;" vertex="1" parent="1">
          <mxGeometry x="80" y="570" width="170" height="30" as="geometry" />
        </mxCell>
        <mxCell id="cO0M3a5bvMooVGa-kS_4-15" value="" style="endArrow=classic;html=1;rounded=0;exitX=0.5;exitY=1;exitDx=0;exitDy=0;" edge="1" parent="1" source="cO0M3a5bvMooVGa-kS_4-10">
          <mxGeometry width="50" height="50" relative="1" as="geometry">
            <mxPoint x="450" y="720" as="sourcePoint" />
            <mxPoint x="435" y="690" as="targetPoint" />
          </mxGeometry>
        </mxCell>
        <mxCell id="cO0M3a5bvMooVGa-kS_4-21" value="&lt;font style=&quot;font-size: 15px;&quot;&gt;Variables&lt;/font&gt;" style="text;html=1;align=center;verticalAlign=middle;whiteSpace=wrap;rounded=0;" vertex="1" parent="1">
          <mxGeometry x="90" y="1080" width="330" height="30" as="geometry" />
        </mxCell>
        <mxCell id="cO0M3a5bvMooVGa-kS_4-23" value="RAM&amp;nbsp; 4Gb (está divididad en direcciones)" style="text;html=1;align=center;verticalAlign=middle;whiteSpace=wrap;rounded=0;" vertex="1" parent="1">
          <mxGeometry x="320" y="1100" width="320" height="30" as="geometry" />
        </mxCell>
        <mxCell id="cO0M3a5bvMooVGa-kS_4-24" value="" style="rounded=0;whiteSpace=wrap;html=1;" vertex="1" parent="1">
          <mxGeometry x="290" y="1140" width="500" height="820" as="geometry" />
        </mxCell>
        <mxCell id="cO0M3a5bvMooVGa-kS_4-25" value="0" style="text;html=1;align=center;verticalAlign=middle;whiteSpace=wrap;rounded=0;" vertex="1" parent="1">
          <mxGeometry x="230" y="1150" width="60" height="30" as="geometry" />
        </mxCell>
        <mxCell id="cO0M3a5bvMooVGa-kS_4-26" value="1" style="text;html=1;align=center;verticalAlign=middle;whiteSpace=wrap;rounded=0;" vertex="1" parent="1">
          <mxGeometry x="230" y="1180" width="60" height="30" as="geometry" />
        </mxCell>
        <mxCell id="cO0M3a5bvMooVGa-kS_4-27" value="2" style="text;html=1;align=center;verticalAlign=middle;whiteSpace=wrap;rounded=0;" vertex="1" parent="1">
          <mxGeometry x="230" y="1210" width="60" height="30" as="geometry" />
        </mxCell>
        <mxCell id="cO0M3a5bvMooVGa-kS_4-28" value="4Gb - 1" style="text;html=1;align=center;verticalAlign=middle;whiteSpace=wrap;rounded=0;" vertex="1" parent="1">
          <mxGeometry x="220" y="1930" width="60" height="30" as="geometry" />
        </mxCell>
        <mxCell id="cO0M3a5bvMooVGa-kS_4-29" value="" style="rounded=0;whiteSpace=wrap;html=1;" vertex="1" parent="1">
          <mxGeometry x="290" y="1140" width="500" height="40" as="geometry" />
        </mxCell>
        <mxCell id="cO0M3a5bvMooVGa-kS_4-30" value="" style="rounded=0;whiteSpace=wrap;html=1;" vertex="1" parent="1">
          <mxGeometry x="290" y="1180" width="500" height="40" as="geometry" />
        </mxCell>
        <mxCell id="cO0M3a5bvMooVGa-kS_4-31" value="" style="rounded=0;whiteSpace=wrap;html=1;" vertex="1" parent="1">
          <mxGeometry x="290" y="1220" width="500" height="40" as="geometry" />
        </mxCell>
        <mxCell id="cO0M3a5bvMooVGa-kS_4-32" value="" style="rounded=0;whiteSpace=wrap;html=1;" vertex="1" parent="1">
          <mxGeometry x="290" y="1260" width="500" height="40" as="geometry" />
        </mxCell>
        <mxCell id="cO0M3a5bvMooVGa-kS_4-33" value="" style="rounded=0;whiteSpace=wrap;html=1;" vertex="1" parent="1">
          <mxGeometry x="290" y="1920" width="500" height="40" as="geometry" />
        </mxCell>
        <mxCell id="cO0M3a5bvMooVGa-kS_4-34" value="Text" style="text;html=1;align=center;verticalAlign=middle;whiteSpace=wrap;rounded=0;" vertex="1" parent="1">
          <mxGeometry x="510" y="720" width="60" height="30" as="geometry" />
        </mxCell>
        <mxCell id="cO0M3a5bvMooVGa-kS_4-35" value="&lt;h1 style=&quot;margin-top: 0px;&quot;&gt;Declaración de Variables&lt;/h1&gt;&lt;p&gt;int&amp;nbsp; x = 5;&lt;br&gt;&lt;br&gt;x = 20&lt;/p&gt;" style="text;html=1;whiteSpace=wrap;overflow=hidden;rounded=0;" vertex="1" parent="1">
          <mxGeometry x="90" y="890" width="340" height="120" as="geometry" />
        </mxCell>
        <mxCell id="cO0M3a5bvMooVGa-kS_4-36" value="Compilador" style="text;html=1;align=center;verticalAlign=middle;whiteSpace=wrap;rounded=0;" vertex="1" parent="1">
          <mxGeometry x="80" y="1120" width="80" height="30" as="geometry" />
        </mxCell>
        <mxCell id="cO0M3a5bvMooVGa-kS_4-37" value="" style="shape=flexArrow;endArrow=classic;html=1;rounded=0;exitX=0.091;exitY=0.974;exitDx=0;exitDy=0;exitPerimeter=0;" edge="1" parent="1" source="cO0M3a5bvMooVGa-kS_4-35" target="cO0M3a5bvMooVGa-kS_4-36">
          <mxGeometry width="50" height="50" relative="1" as="geometry">
            <mxPoint x="90" y="1070" as="sourcePoint" />
            <mxPoint x="170" y="1020" as="targetPoint" />
          </mxGeometry>
        </mxCell>
        <mxCell id="cO0M3a5bvMooVGa-kS_4-39" value="" style="endArrow=classic;html=1;rounded=0;entryX=0.005;entryY=0.349;entryDx=0;entryDy=0;entryPerimeter=0;" edge="1" parent="1" target="cO0M3a5bvMooVGa-kS_4-24">
          <mxGeometry width="50" height="50" relative="1" as="geometry">
            <mxPoint x="110" y="1190" as="sourcePoint" />
            <mxPoint x="180" y="1230" as="targetPoint" />
            <Array as="points">
              <mxPoint x="110" y="1426" />
            </Array>
          </mxGeometry>
        </mxCell>
        <mxCell id="cO0M3a5bvMooVGa-kS_4-42" value="36" style="text;html=1;align=center;verticalAlign=middle;whiteSpace=wrap;rounded=0;" vertex="1" parent="1">
          <mxGeometry x="230" y="1390" width="60" height="30" as="geometry" />
        </mxCell>
        <mxCell id="cO0M3a5bvMooVGa-kS_4-43" value="0" style="rounded=0;whiteSpace=wrap;html=1;" vertex="1" parent="1">
          <mxGeometry x="290" y="1385" width="500" height="40" as="geometry" />
        </mxCell>
        <mxCell id="cO0M3a5bvMooVGa-kS_4-44" value="0" style="rounded=0;whiteSpace=wrap;html=1;" vertex="1" parent="1">
          <mxGeometry x="290" y="1425" width="500" height="40" as="geometry" />
        </mxCell>
        <mxCell id="cO0M3a5bvMooVGa-kS_4-45" value="0" style="rounded=0;whiteSpace=wrap;html=1;" vertex="1" parent="1">
          <mxGeometry x="290" y="1465" width="500" height="40" as="geometry" />
        </mxCell>
        <mxCell id="cO0M3a5bvMooVGa-kS_4-46" value="20" style="rounded=0;whiteSpace=wrap;html=1;" vertex="1" parent="1">
          <mxGeometry x="290" y="1505" width="500" height="40" as="geometry" />
        </mxCell>
        <mxCell id="cO0M3a5bvMooVGa-kS_4-47" value="x" style="text;html=1;align=center;verticalAlign=middle;whiteSpace=wrap;rounded=0;" vertex="1" parent="1">
          <mxGeometry x="90" y="1160" width="60" height="30" as="geometry" />
        </mxCell>
      </root>
    </mxGraphModel>
  </diagram>
</mxfile>
